# xmcd
#
# Track frame offsets:
#	151
#	14932
#	31129
#	50380
#	63005
#	81776
#	101079
#	113180
#	128117
#	142794
#	157775
#	167664
#	181401
#	195320
#	204745
#	216992
#
# Disc length: 3091 seconds
#
# Revision: 1
# Processed by: cddbd v1.5.2PL0 Copyright (c) Steve Scherf et al.
# Submitted via: audiograbber 1.83.01
#
DISCID=d50c1110
DTITLE=Terry Moratti - Forever Yours
DYEAR=1900
DGENRE=Country
TTITLE0=Don't Come Crying To Me
TTITLE1=Your Man
TTITLE2=Bluest Heartache
TTITLE3=Don't Let Me Cross Over
TTITLE4=I Want To Be a Child Again
TTITLE5=Paper Rosie
TTITLE6=Wild Side of Life
TTITLE7=Cut Your Toenails Betty
TTITLE8=Don't Talk of Love
TTITLE9=Blackboard of My Heart
TTITLE10=My Heart Skips a Beat
TTITLE11=Don't Break This Heart
TTITLE12=It Is No Secret
TTITLE13=Lonely Blues
TTITLE14=Close Up The Honky Tonks
TTITLE15=I'll Leave This World Loving You
EXTD=New Plymouth, New Zealand
EXTT0=
EXTT1=
EXTT2=
EXTT3=
EXTT4=
EXTT5=
EXTT6=
EXTT7=
EXTT8=
EXTT9=
EXTT10=
EXTT11=
EXTT12=
EXTT13=
EXTT14=
EXTT15=
PLAYORDER=
